<svg version="1.1" id="Layer_1" xmlns="http://www.w3.org/2000/svg" xmlns:xlink="http://www.w3.org/1999/xlink" x="0px" y="0px"
	 width="100%" viewBox="0 0 1080 1080" enable-background="new 0 0 1080 1080" xml:space="preserve">
<path fill="#FFFFFF" opacity="1.000000" stroke="none" 
	d="
M576.000000,1081.000000 
	C384.022095,1081.000000 192.544189,1081.000000 1.033147,1081.000000 
	C1.033147,721.063660 1.033147,361.127289 1.033147,1.095460 
	C360.894806,1.095460 720.789612,1.095460 1080.842285,1.095460 
	C1080.842285,360.999939 1080.842285,720.999939 1080.842285,1081.000000 
	C912.793457,1081.000000 744.646729,1081.000000 576.000000,1081.000000 
M757.501404,1010.000183 
	C828.969360,976.687866 889.980896,929.740540 939.822754,868.674683 
	C1014.510010,777.168701 1053.924683,672.315735 1057.319824,554.074524 
	C1058.709839,505.666046 1053.856445,457.920044 1041.614014,411.072693 
	C1015.285522,310.323334 963.474548,224.826508 886.205627,155.040771 
	C820.474548,95.675461 744.182312,55.905869 658.038208,35.509342 
	C601.496765,22.121929 544.153687,18.946001 486.306885,24.773373 
	C441.032715,29.334206 397.152435,39.750053 354.745514,56.135563 
	C259.897278,92.783730 182.122147,152.124252 122.073509,234.068619 
	C64.300629,312.907379 31.559559,401.371246 23.814783,498.941711 
	C19.390778,554.676392 23.125811,609.869446 37.164585,663.984558 
	C75.703163,812.538818 162.876129,923.587646 297.260162,997.359253 
	C352.799072,1027.848022 412.591400,1045.936890 475.385559,1053.772705 
	C519.720825,1059.305054 564.113037,1058.775146 608.463562,1053.131836 
	C660.154114,1046.554443 709.481567,1031.933350 757.501404,1010.000183 
z"/>
<path fill="#000000" opacity="1.000000" stroke="none" 
	d="
M757.149780,1010.141724 
	C709.481567,1031.933350 660.154114,1046.554443 608.463562,1053.131836 
	C564.113037,1058.775146 519.720825,1059.305054 475.385559,1053.772705 
	C412.591400,1045.936890 352.799072,1027.848022 297.260162,997.359253 
	C162.876129,923.587646 75.703163,812.538818 37.164585,663.984558 
	C23.125811,609.869446 19.390778,554.676392 23.814783,498.941711 
	C31.559559,401.371246 64.300629,312.907379 122.073509,234.068619 
	C182.122147,152.124252 259.897278,92.783730 354.745514,56.135563 
	C397.152435,39.750053 441.032715,29.334206 486.306885,24.773373 
	C544.153687,18.946001 601.496765,22.121929 658.038208,35.509342 
	C744.182312,55.905869 820.474548,95.675461 886.205627,155.040771 
	C963.474548,224.826508 1015.285522,310.323334 1041.614014,411.072693 
	C1053.856445,457.920044 1058.709839,505.666046 1057.319824,554.074524 
	C1053.924683,672.315735 1014.510010,777.168701 939.822754,868.674683 
	C889.980896,929.740540 828.969360,976.687866 757.149780,1010.141724 
M511.791199,649.186462 
	C507.483612,669.236328 503.175995,689.286194 498.866852,709.343323 
	C484.502716,707.011719 471.961823,702.078186 460.435089,694.398926 
	C445.344940,684.345764 434.741150,670.470764 426.081543,654.864258 
	C422.473755,648.362183 419.017029,647.917908 413.452972,653.148621 
	C407.505188,658.740051 401.530975,664.303345 395.581116,669.892578 
	C392.586823,672.705444 389.620880,675.548523 386.462341,678.548706 
	C409.102448,720.233704 444.378052,742.854492 490.256958,750.062012 
	C486.233093,768.954346 482.328888,787.285156 478.394836,805.755859 
	C491.286316,805.755859 503.717804,805.755859 516.357117,805.755859 
	C520.302795,787.445862 524.207825,769.324707 527.748230,752.895203 
	C545.328369,749.436829 561.974060,747.017761 578.142456,742.778625 
	C601.684387,736.606079 621.812256,724.185913 637.590698,705.389587 
	C657.121033,682.123840 665.763733,654.840393 666.170532,624.808289 
	C666.505615,600.068420 657.836853,578.937195 639.505981,562.054626 
	C627.442749,550.944458 613.161560,543.568481 597.854675,538.126465 
	C590.387573,535.471741 582.710022,533.409180 574.727234,530.955505 
	C583.989929,487.517212 593.224487,444.210571 602.481018,400.801056 
	C603.808289,400.918701 604.637512,400.924133 605.440125,401.073181 
	C629.265625,405.497314 648.546387,417.015350 662.174927,437.388733 
	C664.953430,441.542267 669.260132,442.368988 672.421448,439.154724 
	C681.392151,430.033722 690.217102,420.769470 699.195679,411.461823 
	C678.076782,379.768799 646.736206,366.518768 610.923523,361.119995 
	C614.834839,342.419922 618.633240,324.259918 622.499023,305.777893 
	C609.484741,305.777893 597.086182,305.777893 584.487671,305.777893 
	C580.928406,322.583862 577.318298,339.134644 573.987366,355.741394 
	C573.248352,359.425476 571.796143,360.579376 567.945496,361.107788 
	C553.479675,363.092896 538.857971,364.765533 524.748779,368.345032 
	C500.011993,374.620697 479.360931,387.922119 464.009857,408.642822 
	C448.909393,429.025238 443.454285,452.311066 444.461548,477.288727 
	C445.103363,493.205841 449.527344,508.026337 458.493500,521.370483 
	C471.042908,540.047485 489.048279,551.052307 509.913940,557.999573 
	C516.461487,560.179626 523.125061,562.011230 529.798218,564.021118 
	C523.776794,592.444031 517.854858,620.397339 511.791199,649.186462 
z"/>
<path fill="#FEFEFE" opacity="1.000000" stroke="none" 
	d="
M511.862061,648.768555 
	C517.854858,620.397339 523.776794,592.444031 529.798218,564.021118 
	C523.125061,562.011230 516.461487,560.179626 509.913940,557.999573 
	C489.048279,551.052307 471.042908,540.047485 458.493500,521.370483 
	C449.527344,508.026337 445.103363,493.205841 444.461548,477.288727 
	C443.454285,452.311066 448.909393,429.025238 464.009857,408.642822 
	C479.360931,387.922119 500.011993,374.620697 524.748779,368.345032 
	C538.857971,364.765533 553.479675,363.092896 567.945496,361.107788 
	C571.796143,360.579376 573.248352,359.425476 573.987366,355.741394 
	C577.318298,339.134644 580.928406,322.583862 584.487671,305.777893 
	C597.086182,305.777893 609.484741,305.777893 622.499023,305.777893 
	C618.633240,324.259918 614.834839,342.419922 610.923523,361.119995 
	C646.736206,366.518768 678.076782,379.768799 699.195679,411.461823 
	C690.217102,420.769470 681.392151,430.033722 672.421448,439.154724 
	C669.260132,442.368988 664.953430,441.542267 662.174927,437.388733 
	C648.546387,417.015350 629.265625,405.497314 605.440125,401.073181 
	C604.637512,400.924133 603.808289,400.918701 602.481018,400.801056 
	C593.224487,444.210571 583.989929,487.517212 574.727234,530.955505 
	C582.710022,533.409180 590.387573,535.471741 597.854675,538.126465 
	C613.161560,543.568481 627.442749,550.944458 639.505981,562.054626 
	C657.836853,578.937195 666.505615,600.068420 666.170532,624.808289 
	C665.763733,654.840393 657.121033,682.123840 637.590698,705.389587 
	C621.812256,724.185913 601.684387,736.606079 578.142456,742.778625 
	C561.974060,747.017761 545.328369,749.436829 527.748230,752.895203 
	C524.207825,769.324707 520.302795,787.445862 516.357117,805.755859 
	C503.717804,805.755859 491.286316,805.755859 478.394836,805.755859 
	C482.328888,787.285156 486.233093,768.954346 490.256958,750.062012 
	C444.378052,742.854492 409.102448,720.233704 386.462341,678.548706 
	C389.620880,675.548523 392.586823,672.705444 395.581116,669.892578 
	C401.530975,664.303345 407.505188,658.740051 413.452972,653.148621 
	C419.017029,647.917908 422.473755,648.362183 426.081543,654.864258 
	C434.741150,670.470764 445.344940,684.345764 460.435089,694.398926 
	C471.961823,702.078186 484.502716,707.011719 498.866852,709.343323 
	C503.175995,689.286194 507.483612,669.236328 511.862061,648.768555 
M558.412170,607.926208 
	C551.207764,641.931641 544.003296,675.937134 536.627686,710.750671 
	C544.177368,709.328857 550.784546,708.463196 557.189636,706.813049 
	C585.438721,699.535217 606.996033,684.381104 616.233704,655.302612 
	C626.982117,621.468445 615.242432,594.597717 583.135132,579.644470 
	C577.687927,577.107605 571.897461,575.307861 565.850586,573.009888 
	C563.320190,585.044861 560.999207,596.084106 558.412170,607.926208 
M537.225952,404.635742 
	C535.034851,405.397095 532.807373,406.068176 530.658142,406.933411 
	C501.135681,418.818481 485.379822,445.427338 489.004822,477.095734 
	C491.803741,501.546997 515.217773,517.260742 538.595154,521.491638 
	C547.185547,481.130524 555.777161,440.763916 564.648499,399.082977 
	C555.125366,400.955231 546.550049,402.641174 537.225952,404.635742 
z"/>
<path fill="#020202" opacity="1.000000" stroke="none" 
	d="
M558.545166,607.524780 
	C560.999207,596.084106 563.320190,585.044861 565.850586,573.009888 
	C571.897461,575.307861 577.687927,577.107605 583.135132,579.644470 
	C615.242432,594.597717 626.982117,621.468445 616.233704,655.302612 
	C606.996033,684.381104 585.438721,699.535217 557.189636,706.813049 
	C550.784546,708.463196 544.177368,709.328857 536.627686,710.750671 
	C544.003296,675.937134 551.207764,641.931641 558.545166,607.524780 
z"/>
<path fill="#020202" opacity="1.000000" stroke="none" 
	d="
M537.600342,404.481445 
	C546.550049,402.641174 555.125366,400.955231 564.648499,399.082977 
	C555.777161,440.763916 547.185547,481.130524 538.595154,521.491638 
	C515.217773,517.260742 491.803741,501.546997 489.004822,477.095734 
	C485.379822,445.427338 501.135681,418.818481 530.658142,406.933411 
	C532.807373,406.068176 535.034851,405.397095 537.600342,404.481445 
z"/>
</svg>